<svg xmlns="http://www.w3.org/2000/svg" viewBox="0 0 1200 675">
  <defs>
    <linearGradient id="sky" x1="0" x2="0" y1="0" y2="1">
      <stop offset="0" stop-color="#dbeafe"/>
      <stop offset="1" stop-color="#f8fafc"/>
    </linearGradient>
    <linearGradient id="road" x1="0" x2="0" y1="0" y2="1">
      <stop offset="0" stop-color="#475569"/>
      <stop offset="1" stop-color="#334155"/>
    </linearGradient>
    <filter id="shadow" x="-20%" y="-20%" width="140%" height="140%">
      <feDropShadow dx="0" dy="6" stdDeviation="8" flood-color="#000" flood-opacity=".22"/>
    </filter>
  </defs>
  <style>
    .o{stroke:#0b1020;stroke-width:8;stroke-linecap:round;stroke-linejoin:round}
    .o2{stroke:#0b1020;stroke-width:6;stroke-linecap:round;stroke-linejoin:round}
    .txt{font: 900 44px ui-sans-serif, system-ui; fill:#0b1020}
    .mut{fill:#0b1020;opacity:.75}
  </style>
  
  <rect x="0" y="0" width="1200" height="675" fill="url(#sky)"/>
  <rect x="0" y="430" width="1200" height="245" fill="#fef3c7"/>
  <!-- bandaged worker -->
  
      <circle cx="600" cy="280" r="42" fill="#ffd7b5" class="o" filter="url(#shadow)"/>
      <circle cx="585" cy="272" r="6" fill="#0b1020"/>
      <circle cx="615" cy="272" r="6" fill="#0b1020"/>
    <path class="o2" d="M582 292 Q600 304 618 292" fill="none"/>
      <rect x="560" y="320" width="80" height="100" rx="22" fill="#f59e0b" class="o" filter="url(#shadow)"/>
    
          <path class="o" d="M540 375 C560 360, 575 358, 590 362" fill="none"/>
          <path class="o" d="M660 375 C640 360, 625 358, 610 362" fill="none"/>
        
  <rect x="560" y="220" width="80" height="36" rx="14" fill="#fff" class="o" filter="url(#shadow)"/>
  <path class="o2" d="M572 238 H628" stroke="#ef4444" opacity=".6"/>
  <!-- medkit -->
  <rect x="860" y="360" width="180" height="130" rx="26" fill="#fee2e2" class="o" filter="url(#shadow)"/>
  <path class="o2" d="M950 385 V470 M910 428 H990" stroke="#ef4444"/>
  <text x="600" y="520" class="txt" text-anchor="middle">일반재해 발생</text>

</svg>