<svg xmlns="http://www.w3.org/2000/svg" viewBox="0 0 1200 675">
  <defs>
    <linearGradient id="sky" x1="0" x2="0" y1="0" y2="1">
      <stop offset="0" stop-color="#dbeafe"/>
      <stop offset="1" stop-color="#f8fafc"/>
    </linearGradient>
    <linearGradient id="road" x1="0" x2="0" y1="0" y2="1">
      <stop offset="0" stop-color="#475569"/>
      <stop offset="1" stop-color="#334155"/>
    </linearGradient>
    <filter id="shadow" x="-20%" y="-20%" width="140%" height="140%">
      <feDropShadow dx="0" dy="6" stdDeviation="8" flood-color="#000" flood-opacity=".22"/>
    </filter>
  </defs>
  <style>
    .o{stroke:#0b1020;stroke-width:8;stroke-linecap:round;stroke-linejoin:round}
    .o2{stroke:#0b1020;stroke-width:6;stroke-linecap:round;stroke-linejoin:round}
    .txt{font: 900 44px ui-sans-serif, system-ui; fill:#0b1020}
    .mut{fill:#0b1020;opacity:.75}
  </style>
  
  <rect x="0" y="0" width="1200" height="675" fill="url(#sky)"/>
  <rect x="0" y="430" width="1200" height="245" fill="#bbf7d0"/>
  <circle cx="1050" cy="110" r="70" fill="#fde047" class="o" filter="url(#shadow)"/>
  <path class="o2" d="M1040 110 Q1050 125 1060 110" fill="none"/>
  <!-- crew high five -->
  
      <circle cx="470" cy="300" r="42" fill="#ffd7b5" class="o" filter="url(#shadow)"/>
      <circle cx="455" cy="292" r="6" fill="#0b1020"/>
      <circle cx="485" cy="292" r="6" fill="#0b1020"/>
    <path class="o2" d="M452 312 Q470 324 488 312" fill="none"/>
      <rect x="430" y="340" width="80" height="100" rx="22" fill="#f59e0b" class="o" filter="url(#shadow)"/>
    
          <path class="o" d="M410 395 C430 380, 445 378, 460 382" fill="none"/>
          <path class="o" d="M530 395 C510 380, 495 378, 480 382" fill="none"/>
        
  
      <circle cx="730" cy="300" r="42" fill="#ffd7b5" class="o" filter="url(#shadow)"/>
      <circle cx="715" cy="292" r="6" fill="#0b1020"/>
      <circle cx="745" cy="292" r="6" fill="#0b1020"/>
    <path class="o2" d="M712 312 Q730 324 748 312" fill="none"/>
      <rect x="690" y="340" width="80" height="100" rx="22" fill="#f59e0b" class="o" filter="url(#shadow)"/>
    
          <path class="o" d="M670 395 C690 380, 705 378, 720 382" fill="none"/>
          <path class="o" d="M790 395 C770 380, 755 378, 740 382" fill="none"/>
        
  <path class="o" d="M530 380 L600 320" fill="none"/>
  <path class="o" d="M670 380 L600 320" fill="none"/>
  <circle cx="600" cy="320" r="16" fill="#ffd7b5" class="o"/>
  <text x="600" y="520" class="txt" text-anchor="middle">무사고 완료!</text>

</svg>