<svg xmlns="http://www.w3.org/2000/svg" viewBox="0 0 1200 675">
  <defs>
    <linearGradient id="sky" x1="0" x2="0" y1="0" y2="1">
      <stop offset="0" stop-color="#dbeafe"/>
      <stop offset="1" stop-color="#f8fafc"/>
    </linearGradient>
    <linearGradient id="road" x1="0" x2="0" y1="0" y2="1">
      <stop offset="0" stop-color="#475569"/>
      <stop offset="1" stop-color="#334155"/>
    </linearGradient>
    <filter id="shadow" x="-20%" y="-20%" width="140%" height="140%">
      <feDropShadow dx="0" dy="6" stdDeviation="8" flood-color="#000" flood-opacity=".22"/>
    </filter>
  </defs>
  <style>
    .o{stroke:#0b1020;stroke-width:8;stroke-linecap:round;stroke-linejoin:round}
    .o2{stroke:#0b1020;stroke-width:6;stroke-linecap:round;stroke-linejoin:round}
    .txt{font: 900 44px ui-sans-serif, system-ui; fill:#0b1020}
    .mut{fill:#0b1020;opacity:.75}
  </style>
  
  
  <rect x="0" y="0" width="1200" height="675" fill="url(#sky)"/>
  <rect x="0" y="430" width="1200" height="245" fill="url(#road)"/>
  <rect x="0" y="390" width="1200" height="60" fill="#94a3b8" opacity=".35"/>
  <path class="o2" d="M0 520 H1200" stroke="#e2e8f0" opacity=".35"/>
  <path class="o2" d="M120 555 H320 M520 555 H720 M920 555 H1120" stroke="#e2e8f0" opacity=".35"/>

  <!-- bucket truck -->
  <rect x="90" y="340" width="360" height="120" rx="26" fill="#60a5fa" class="o" filter="url(#shadow)"/>
  <rect x="120" y="360" width="120" height="60" rx="14" fill="#dbeafe" class="o2"/>
  <circle cx="170" cy="470" r="34" fill="#0b1020" class="o"/>
  <circle cx="370" cy="470" r="34" fill="#0b1020" class="o"/>
  <!-- boom -->
  <path class="o" d="M420 355 L640 265" fill="none"/>
  <rect x="610" y="225" width="130" height="70" rx="22" fill="#e2e8f0" class="o" filter="url(#shadow)"/>

  <!-- parked car blocking -->
  <rect x="640" y="380" width="360" height="110" rx="28" fill="#f87171" class="o" filter="url(#shadow)"/>
  <rect x="680" y="400" width="120" height="55" rx="14" fill="#fee2e2" class="o2"/>
  <circle cx="710" cy="505" r="28" fill="#0b1020" class="o"/>
  <circle cx="920" cy="505" r="28" fill="#0b1020" class="o"/>

  <!-- angry driver -->
  
      <circle cx="930" cy="320" r="42" fill="#ffd7b5" class="o" filter="url(#shadow)"/>
      <circle cx="915" cy="312" r="6" fill="#0b1020"/>
      <circle cx="945" cy="312" r="6" fill="#0b1020"/>
    <path class="o2" d="M902 298 L924 306 M958 298 L936 306" fill="none"/><path class="o2" d="M912 338 Q930 322 948 338" fill="none"/>
      <rect x="890" y="360" width="80" height="100" rx="22" fill="#60a5fa" class="o" filter="url(#shadow)"/>
    
          <path class="o" d="M870 415 C890 400, 905 398, 920 402" fill="none"/>
          <path class="o" d="M990 415 C970 400, 955 398, 940 402" fill="none"/>
        
  
      <rect x="850" y="70" width="260" height="120" rx="26" fill="#fee2e2" class="o" filter="url(#shadow)"/>
      <path class="o" d="M920 190 L890 230 L970 190" fill="#fee2e2"/>
      <path class="o2" d="M0 0 C30 -25, 60 25, 90 0 C120 -25, 150 25, 180 0" fill="none" transform="translate(890 140)"/>
      <text x="1054" y="132" class="txt">!</text>
    
  <text x="940" y="115" class="txt" text-anchor="middle">차량 미이동</text>

  <!-- worker -->
  
      <circle cx="520" cy="340" r="42" fill="#ffd7b5" class="o" filter="url(#shadow)"/>
      <circle cx="505" cy="332" r="6" fill="#0b1020"/>
      <circle cx="535" cy="332" r="6" fill="#0b1020"/>
    <path class="o2" d="M502 352 Q520 364 538 352" fill="none"/>
      <rect x="480" y="380" width="80" height="100" rx="22" fill="#f59e0b" class="o" filter="url(#shadow)"/>
    
          <path class="o" d="M460 435 C480 420, 495 418, 510 422" fill="none"/>
          <path class="o" d="M580 435 C560 420, 545 418, 530 422" fill="none"/>
        

</svg>